<?xml version="1.0" standalone="no"?>
<!DOCTYPE svg PUBLIC "-//W3C//DTD SVG 20010904//EN"
 "http://www.w3.org/TR/2001/REC-SVG-20010904/DTD/svg10.dtd">
<svg version="1.0" xmlns="http://www.w3.org/2000/svg"
 width="504.000000pt" height="458.000000pt" viewBox="0 0 504.000000 458.000000"
 preserveAspectRatio="xMidYMid meet">

<g transform="translate(0.000000,458.000000) scale(0.100000,-0.100000)" fill="#034f7b" stroke="none">
<path d="M1155 4113 c-11 -3 -28 -12 -39 -22 -37 -32 -46 -74 -46 -217 0 -218
16 -234 229 -234 l131 0 0 -239 0 -239 -144 -4 c-218 -5 -216 -2 -216 -353 l0
-245 -180 0 -180 0 0 365 c0 390 -2 407 -50 450 -19 17 -36 20 -130 20 -94 0
-111 -3 -130 -20 -49 -44 -50 -51 -50 -581 0 -551 0 -547 65 -578 26 -13 71
-16 224 -16 l191 0 0 -311 c0 -262 2 -316 16 -344 27 -58 57 -65 273 -65 l191
0 0 -311 c0 -347 3 -364 65 -393 50 -24 780 -24 830 0 47 22 65 66 65 158 0
83 -14 130 -50 161 -21 19 -39 20 -286 23 l-264 3 0 180 0 179 840 0 840 0 0
-179 0 -180 -264 -3 c-247 -3 -265 -4 -286 -23 -36 -31 -50 -78 -50 -161 0
-92 18 -136 65 -158 48 -23 780 -24 829 -1 61 29 61 29 64 383 l3 322 191 0
c215 0 245 7 272 65 14 28 16 82 16 344 l0 311 191 0 c153 0 198 3 224 16 65
31 65 27 65 578 0 530 -1 537 -50 581 -19 17 -36 20 -130 20 -94 0 -111 -3
-130 -20 -48 -43 -50 -60 -50 -450 l0 -365 -180 0 -180 0 0 245 c0 351 2 348
-216 353 l-144 4 0 239 0 239 131 0 c213 0 229 16 229 234 0 146 -9 185 -50
221 -19 17 -36 20 -130 20 -94 0 -111 -3 -130 -20 -34 -30 -50 -77 -50 -149
l0 -64 -144 -4 c-211 -5 -216 -11 -216 -293 l0 -185 -720 0 -720 0 0 185 c0
282 -5 288 -216 293 l-144 4 0 64 c0 71 -16 119 -49 149 -18 16 -39 20 -114
21 -51 2 -101 0 -112 -3z m2075 -1193 l0 -120 180 0 180 0 0 -300 0 -300 120
0 120 0 0 -180 0 -180 -1320 0 -1320 0 0 180 0 180 120 0 120 0 0 300 0 300
180 0 180 0 0 120 0 120 720 0 720 0 0 -120z"/>
<path d="M1875 2673 c-11 -3 -28 -12 -39 -22 -40 -34 -46 -72 -46 -277 0 -293
4 -297 255 -292 l155 3 32 33 33 32 3 203 c4 219 -2 259 -44 298 -25 23 -31
24 -177 26 -84 1 -161 -1 -172 -4z"/>
<path d="M2835 2673 c-11 -3 -28 -12 -39 -22 -40 -34 -46 -72 -46 -277 0 -293
4 -297 255 -292 l155 3 32 33 33 32 3 203 c4 219 -2 258 -44 298 -25 23 -31
24 -177 26 -84 1 -161 -1 -172 -4z"/>
</g>
</svg>
